<?xml version="1.0" encoding="UTF-8" standalone="yes"?>
<svg version="1.2" width="640.000000pt" height="640.000000pt" viewBox="0 0 640.000000 640.000000" preserveAspectRatio="xMidYMid meet" baseProfile="tiny-ps" xmlns="http://www.w3.org/2000/svg">
  <title>bimi-svg-tiny-12-ps</title>
  <g transform="translate(0.000000,640.000000) scale(0.100000,-0.100000)" fill="#000000" stroke="none">
    <path d="M0 3200 l0 -3200 3200 0 3200 0 0 3200 0 3200 -3200 0 -3200 0 0&#xA;-3200z m3531 2772 c383 -90 659 -260 924 -572 155 -182 290 -468 326 -693 15&#xA;-89 6 -119 -43 -146 -24 -14 -30 -14 -62 1 -45 22 -61 53 -87 175 -82 378&#xA;-386 759 -749 939 -229 113 -411 151 -682 141 -263 -9 -480 -80 -717 -234&#xA;-104 -67 -297 -254 -375 -363 -115 -159 -208 -380 -232 -545 -17 -124 -105&#xA;-166 -158 -76 -18 32 -19 41 -8 125 20 159 104 381 200 530 201 311 529 565&#xA;871 673 192 60 287 73 511 69 149 -3 215 -9 281 -24z m67 -402 c36 -22 66 -80&#xA;57 -109 -3 -10 -15 -27 -26 -37 -20 -18 -45 -19 -398 -21 -250 -1 -385 2 -404&#xA;9 -27 10 -57 53 -57 80 0 20 42 66 75 83 25 12 86 15 375 15 328 0 347 -1 378&#xA;-20z m493 -339 c30 -31 37 -67 19 -102 -25 -46 -32 -46 -645 -51 -319 -3 -696&#xA;-3 -838 0 l-258 5 -30 29 c-35 36 -37 68 -5 105 l24 28 674 5 c370 3 753 6&#xA;851 8 l179 2 29 -29z m-423 -328 c-55 -121 -258 -453 -297 -485 l-27 -23 1&#xA;-170 0 -170 -87 -3 -88 -3 0 153 0 154 -39 52 c-22 28 -61 86 -88 129 -26 42&#xA;-87 137 -135 212 -48 74 -85 138 -82 143 3 4 49 8 102 8 l97 0 54 -93 c30 -50&#xA;86 -137 125 -192 l71 -100 6 45 c5 42 59 139 164 298 l27 41 77 4 c42 1 87 4&#xA;99 5 13 1 22 -1 20 -5z m-930 -12 c8 -5 22 -38 32 -74 16 -58 17 -67 4 -78&#xA;-11 -9 -91 -14 -274 -18 -235 -5 -260 -8 -279 -25 -43 -39 -18 -108 47 -126&#xA;20 -5 116 -10 213 -10 205 0 248 -10 314 -74 48 -45 65 -91 65 -172 0 -73 -24&#xA;-144 -66 -192 -69 -81 -84 -83 -451 -75 l-303 6 0 83 0 82 88 8 c48 4 174 4&#xA;281 1 107 -3 205 -1 218 4 29 11 58 69 50 100 -12 47 -36 52 -248 50 -223 -2&#xA;-252 4 -321 77 -61 62 -83 117 -82 197 1 124 54 191 179 231 46 15 511 19 533&#xA;5z m1192 -326 l5 -330 225 -5 225 -5 3 -87 3 -88 -83 -2 c-46 -1 -190 0 -321&#xA;1 l-239 2 2 410 c0 225 3 416 7 425 4 12 21 14 87 12 l81 -3 5 -330z m-2613&#xA;-6 c42 -16 92 -69 99 -106 8 -40 -26 -114 -62 -138 -62 -40 -141 -24 -188 38&#xA;-36 47 -42 93 -18 137 36 67 103 94 169 69z m3904 -4 c95 -50 91 -203 -8 -250&#xA;-98 -47 -214 39 -200 147 12 91 123 146 208 103z m-3446 -229 c42 -18 50 -33&#xA;80 -153 62 -246 179 -445 371 -636 317 -314 747 -460 1183 -403 393 52 749&#xA;276 981 616 93 137 184 350 205 482 7 43 63 98 100 98 27 0 81 -42 90 -70 11&#xA;-36 -60 -262 -136 -428 -125 -276 -415 -568 -723 -731 -90 -46 -254 -102 -396&#xA;-134 -79 -18 -128 -21 -290 -21 -174 0 -209 3 -322 27 -302 64 -474 146 -696&#xA;331 -180 150 -323 319 -402 476 -82 162 -160 392 -160 471 0 41 30 75 78 88 1&#xA;1 18 -5 37 -13z m2321 -489 c50 -59 21 -125 -62 -137 -27 -4 -413 -5 -857 -2&#xA;l-808 5 -29 33 c-26 30 -28 37 -19 63 12 34 36 57 63 62 11 2 395 4 854 4&#xA;l834 0 24 -28z m-471 -319 c44 -52 28 -122 -33 -147 -20 -8 -130 -11 -391 -9&#xA;l-363 3 -29 33 c-38 42 -39 86 -3 123 l27 28 383 -1 384 0 25 -30z m2431 -622&#xA;c59 -59 42 -143 -39 -191 -62 -36 -92 -33 -138 14 -35 35 -39 44 -39 89 0 45&#xA;4 55 35 87 32 32 41 35 91 35 50 0 59 -3 90 -34z m-4638 -348 c16 -24 55 -88&#xA;87 -143 91 -157 177 -260 159 -191 -7 30 8 61 108 230 l83 139 98 3 c53 2 97&#xA;1 97 -2 0 -23 -178 -345 -259 -469 l-66 -100 -5 -155 -5 -155 -82 -3 -83 -3&#xA;-1 113 c-1 62 0 129 0 148 1 27 -13 60 -62 140 -35 58 -114 187 -176 288 -61&#xA;101 -111 185 -111 187 0 2 35 6 78 8 42 1 85 4 94 5 10 1 29 -15 46 -40z m862&#xA;25 c2 -2 6 -158 10 -346 l5 -342 208 -3 207 -2 0 -89 0 -89 -72 -7 c-40 -3&#xA;-174 -5 -298 -3 l-225 3 -3 447 -2 447 82 -6 c46 -3 85 -8 88 -10z m929 -45&#xA;c16 -35 59 -144 96 -243 67 -179 92 -235 107 -235 4 0 8 11 8 24 0 47 178 488&#xA;204 503 11 7 186 13 186 6 0 -2 -40 -106 -90 -231 -49 -125 -127 -323 -173&#xA;-441 l-83 -213 -71 -3 -71 -2 -57 176 c-69 210 -93 268 -105 255 -4 -5 -26&#xA;-67 -48 -139 -64 -207 -97 -290 -116 -289 -9 0 -40 1 -68 2 l-53 2 -38 108&#xA;c-21 59 -62 175 -91 257 -29 83 -69 188 -89 235 -33 81 -97 260 -97 274 0 3&#xA;42 6 93 6 l92 0 48 -123 c26 -67 64 -174 86 -237 43 -127 61 -170 71 -170 4 0&#xA;20 48 36 108 36 136 90 270 143 351 22 35 41 68 41 73 0 21 14 3 39 -54z m961&#xA;-25 c54 -111 173 -384 250 -573 33 -80 68 -163 79 -185 l19 -40 -21 -8 c-11&#xA;-4 -57 -6 -101 -5 l-81 3 -30 85 c-16 47 -46 119 -66 160 -20 41 -44 101 -53&#xA;132 -24 85 -77 218 -85 218 -5 0 -23 -39 -41 -87 -18 -49 -45 -117 -60 -153&#xA;-60 -140 -141 -326 -149 -340 -6 -11 -31 -15 -104 -17 -54 -1 -97 0 -97 2 0 2&#xA;5 16 11 32 6 15 28 75 49 133 21 58 55 143 75 190 20 47 46 107 56 133 47 118&#xA;103 224 164 312 64 92 68 95 104 95 38 0 39 0 81 -87z m406 -28 c25 -60 68&#xA;-174 96 -253 48 -135 97 -232 116 -232 5 0 15 19 22 43 7 23 24 64 37 92 14&#xA;27 34 72 43 100 10 27 39 97 64 155 26 58 56 126 67 151 l20 46 97 6 c53 3 98&#xA;4 100 3 1 -2 -8 -25 -22 -52 -13 -27 -67 -155 -119 -284 -52 -129 -121 -296&#xA;-154 -370 -33 -74 -63 -145 -67 -157 -7 -22 -13 -23 -100 -23 l-92 0 -18 57&#xA;c-20 64 -65 180 -185 483 -45 113 -93 233 -106 268 -14 35 -23 68 -19 73 3 5&#xA;43 8 91 7 l85 -3 44 -110z m-3450 40 c6 -33 15 -75 19 -92 l7 -33 -248 0&#xA;c-241 0 -248 -1 -271 -22 -27 -25 -30 -64 -7 -97 30 -43 71 -51 247 -51 185 0&#xA;240 -11 300 -61 57 -47 81 -101 81 -184 1 -122 -72 -233 -172 -263 -26 -8&#xA;-138 -12 -336 -12 l-297 0 3 88 3 87 55 1 c30 0 158 1 283 2 l229 2 29 29 c36&#xA;36 39 81 7 111 -22 20 -33 21 -213 19 -210 -2 -221 1 -302 61 -90 69 -131 193&#xA;-99 302 23 80 53 119 116 151 l55 28 250 -3 249 -3 12 -60z m4842 -32 l3 -93&#xA;-261 0 -260 0 0 -47 c0 -27 3 -65 6 -85 l7 -38 207 0 207 0 7 -46 c3 -26 6&#xA;-66 6 -90 l0 -44 -220 0 -220 0 0 -74 c0 -58 3 -75 16 -80 9 -3 123 -6 255 -6&#xA;l239 0 0 -90 0 -90 -340 0 -340 0 0 433 c0 239 3 437 7 440 4 4 158 6 342 5&#xA;l336 -3 3 -92z m-1923 -443 c-3 -5 -10 -10 -16 -10 -5 0 -9 5 -9 10 0 6 7 10&#xA;16 10 8 0 12 -4 9 -10z m-1858 -607 c-3 -2 -30 -7 -61 -10 -51 -5 -57 -8 -54&#xA;-27 2 -17 11 -22 51 -24 42 -3 47 -5 47 -28 0 -22 -4 -24 -50 -24 -43 0 -50&#xA;-3 -50 -19 0 -17 8 -20 53 -23 48 -3 52 -5 55 -30 l3 -28 -86 0 -86 0 3 128 3&#xA;127 85 5 c83 5 85 5 88 -18 2 -13 1 -26 -1 -29z m-277 17 c0 -27 -3 -30 -34&#xA;-30 -33 0 -33 -1 -40 -52 -3 -29 -6 -74 -6 -100 0 -44 -2 -48 -25 -48 -25 0&#xA;-25 0 -25 95 l0 95 -40 0 c-37 0 -40 2 -40 28 0 16 3 32 7 35 3 4 51 7 105 7&#xA;l98 0 0 -30z m569 10 c20 -17 22 -22 10 -38 -7 -9 -14 -18 -15 -20 -1 -2 -14&#xA;4 -29 14 -24 16 -29 16 -60 1 -58 -28 -59 -88 -3 -129 30 -21 32 -21 60 -5 22&#xA;13 34 14 49 7 27 -15 24 -25 -15 -49 -43 -27 -82 -27 -120 0 -46 32 -69 67&#xA;-69 108 0 97 123 168 192 111z m191 -30 l0 -50 49 0 50 0 3 48 c3 39 6 47 23&#xA;47 19 0 20 -8 23 -128 l3 -128 -23 3 c-20 3 -23 10 -26 56 -3 57 -9 60 -82 46&#xA;-32 -7 -32 -8 -26 -51 6 -48 -11 -67 -39 -43 -20 17 -22 235 -2 243 38 16 47&#xA;8 47 -43z m367 -11 c32 -33 60 -65 61 -70 2 -5 7 -9 12 -9 4 0 7 30 7 68 -2&#xA;61 0 67 18 67 18 0 21 -9 28 -108 9 -108 5 -157 -13 -157 -11 0 -50 42 -92 99&#xA;-49 66 -57 63 -60 -16 -3 -62 -5 -68 -25 -71 -14 -2 -23 2 -23 10 -1 7 -3 66&#xA;-6 131 -4 111 -4 117 15 117 10 0 45 -27 78 -61z m403 46 c35 -18 70 -73 70&#xA;-110 0 -37 -36 -98 -70 -118 -103 -61 -225 73 -158 173 24 36 78 70 111 70 10&#xA;0 31 -7 47 -15z m220 -62 c0 -117 3 -123 59 -123 50 0 71 -13 71 -43 0 -16 -8&#xA;-18 -85 -15 l-85 3 0 121 c0 122 2 134 27 134 10 0 13 -20 13 -77z m387 57&#xA;c60 -36 84 -121 49 -174 -22 -34 -73 -66 -106 -66 -53 0 -130 73 -130 124 0&#xA;30 48 104 78 120 37 21 71 19 109 -4z m328 10 c33 -12 42 -37 22 -58 -15 -14&#xA;-18 -14 -37 3 -16 15 -26 17 -47 9 -53 -18 -68 -88 -27 -129 22 -22 88 -17 92&#xA;8 3 13 -3 17 -23 17 -20 0 -26 4 -23 18 3 14 13 16 53 14 28 -2 51 -4 52 -5 1&#xA;-1 -2 -27 -5 -57 l-7 -55 -62 -9 c-55 -8 -64 -6 -92 14 -61 43 -78 116 -40&#xA;176 34 56 87 76 144 54z m207 -35 c18 -25 37 -45 43 -45 6 0 21 21 33 46 21&#xA;42 25 45 50 39 15 -4 28 -8 30 -10 2 -1 -17 -36 -43 -78 -36 -60 -45 -84 -45&#xA;-121 0 -42 -2 -46 -25 -46 -24 0 -25 3 -25 54 0 30 -4 57 -9 60 -16 10 -81&#xA;128 -75 137 12 20 36 7 66 -36z m-2269 -362 c32 -16 35 -38 8 -53 -14 -7 -27&#xA;-7 -45 1 -33 15 -78 -3 -97 -37 -11 -22 -11 -30 1 -51 8 -14 28 -35 43 -47 27&#xA;-20 29 -20 59 -3 29 17 33 17 47 2 15 -15 14 -18 -12 -41 -73 -63 -207 11&#xA;-207 114 0 25 11 44 46 82 58 62 87 69 157 33z m567 -32 c16 -33 34 -62 39&#xA;-65 5 -4 27 20 48 51 29 44 44 58 62 58 24 0 24 -1 29 -120 3 -105 2 -123 -13&#xA;-135 -29 -24 -44 9 -37 82 6 70 -3 71 -44 7 -13 -21 -31 -39 -39 -39 -8 0 -26&#xA;18 -40 40 -14 22 -27 40 -28 40 -2 0 -3 -30 -3 -67 1 -67 1 -68 -26 -71 l-28&#xA;-3 0 128 c0 129 6 153 37 153 7 0 26 -27 43 -59z m700 27 c29 -47 81 -175 87&#xA;-214 5 -31 4 -34 -21 -34 -19 0 -29 7 -35 24 -6 15 -20 25 -41 30 -61 12 -77&#xA;8 -90 -23 -20 -50 -67 -52 -55 -2 3 14 26 69 49 121 24 52 46 103 49 113 10&#xA;27 35 20 57 -15z m273 -25 c25 -32 56 -69 71 -82 l26 -24 -3 72 c-1 54 2 74&#xA;13 81 32 20 40 -8 40 -141 0 -123 -1 -129 -20 -129 -24 0 -54 29 -102 100 -18&#xA;27 -36 50 -40 50 -5 0 -8 -32 -8 -70 0 -56 -3 -72 -16 -77 -31 -12 -44 25 -44&#xA;123 0 108 8 154 26 154 7 0 33 -26 57 -57z m-1226 26 c42 -26 63 -66 63 -118&#xA;0 -73 -89 -143 -158 -126 -43 11 -90 53 -100 89 -14 51 -3 84 43 132 35 37 48&#xA;44 80 44 21 0 53 -9 72 -21z m705 1 c32 -25 52 -72 44 -105 -8 -32 -54 -55&#xA;-110 -55 l-45 0 -3 -42 c-2 -35 -7 -43 -23 -43 -19 0 -20 8 -23 133 l-3 132&#xA;69 0 c54 0 75 -4 94 -20z m836 -22 c10 -24 26 -49 35 -57 15 -12 20 -8 42 43&#xA;21 47 29 56 50 56 36 0 32 -23 -15 -100 -32 -52 -40 -74 -40 -113 0 -47 -1&#xA;-48 -27 -45 -25 3 -28 7 -28 43 0 29 -11 57 -37 100 -20 33 -40 72 -44 88 -5&#xA;24 -3 27 19 27 21 0 30 -8 45 -42z"/>
    <path d="M5930 2893 c0 -6 19 -13 41 -16 50 -7 61 -20 57 -69 -3 -29 -1 -34 9&#xA;-26 23 19 16 76 -11 93 -29 20 -96 32 -96 18z"/>
    <path d="M5890 2871 c-13 -25 -13 -82 0 -115 18 -49 29 -27 27 54 -2 81 -8 95&#xA;-27 61z"/>
    <path d="M5960 2819 c0 -11 5 -17 10 -14 6 3 10 13 10 21 0 8 -4 14 -10 14 -5&#xA;0 -10 -9 -10 -21z"/>
    <path d="M5960 2735 c0 -8 6 -15 14 -15 22 0 28 17 10 24 -22 9 -24 8 -24 -9z"/>
    <path d="M3330 1400 c-40 -40 -22 -90 42 -117 23 -10 30 -9 52 14 48 48 22&#xA;123 -44 123 -17 0 -39 -9 -50 -20z"/>
    <path d="M3935 1395 c-31 -30 -32 -56 -2 -91 29 -33 77 -37 108 -8 17 15 20&#xA;27 16 59 -3 21 -14 45 -23 52 -28 21 -72 16 -99 -12z"/>
    <path d="M3532 961 c-10 -28 -9 -31 14 -37 32 -8 40 0 28 33 -13 37 -30 39&#xA;-42 4z"/>
    <path d="M2501 994 c-12 -15 -21 -35 -21 -46 0 -30 45 -68 80 -68 36 0 80 38&#xA;80 70 0 33 -44 70 -84 70 -25 0 -40 -7 -55 -26z"/>
    <path d="M3228 1018 c-2 -6 -2 -24 0 -40 4 -27 7 -29 36 -23 43 9 56 25 45 53&#xA;-6 17 -16 22 -43 22 -19 0 -36 -5 -38 -12z"/>
  </g>
</svg>